<svg xmlns="http://www.w3.org/2000/svg" viewBox="0 0 900 200" width="900" height="200" role="img" aria-label="Hami Kainy — Full-Stack and AI Engineer">
  <defs>
    <linearGradient id="edge" x1="0" y1="0" x2="1" y2="1">
      <stop offset="0%" stop-color="#38BDF8"/><stop offset="100%" stop-color="#A78BFA"/>
    </linearGradient>
    <pattern id="grid" width="26" height="26" patternUnits="userSpaceOnUse">
      <path d="M26 0H0V26" fill="none" stroke="#38BDF8" stroke-opacity="0.05"/>
    </pattern>
  </defs>

  <rect x="1" y="1" width="898" height="198" rx="12" fill="#080D16" stroke="url(#edge)" stroke-opacity="0.55"/>
  <rect x="1" y="1" width="898" height="198" rx="12" fill="url(#grid)"/>
  <circle cx="26" cy="26" r="5" fill="#FF5F57"/><circle cx="44" cy="26" r="5" fill="#FEBC2E"/><circle cx="62" cy="26" r="5" fill="#28C840"/>
  <text x="86" y="30" font-size="12.5" font-family="ui-monospace,SFMono-Regular,Menlo,Consolas,monospace" fill="#C9D6E3">hami9<tspan fill="#4A5A6E"> / </tspan>README.md</text>
  <text x="874" y="30" text-anchor="end" font-size="11" font-family="ui-monospace,SFMono-Regular,Menlo,Consolas,monospace" fill="#4A5A6E">~/profile</text>
  <line x1="14" y1="46" x2="886" y2="46" stroke="#38BDF8" stroke-opacity="0.16"/>

  <text x="34" y="102" font-size="30" font-weight="700" font-family="ui-monospace,SFMono-Regular,Menlo,Consolas,monospace" fill="#C9D6E3" letter-spacing="1">Hami Kainy</text>
  <text x="34" y="128" font-size="11.5" letter-spacing="4.2" font-family="ui-monospace,SFMono-Regular,Menlo,Consolas,monospace" fill="#A78BFA">FULL-STACK &amp; AI ENGINEER</text>
  <text x="34" y="164" font-size="12" font-family="ui-monospace,SFMono-Regular,Menlo,Consolas,monospace" fill="#7C8FA6"><tspan fill="#38BDF8">$</tspan> ./init.sh --profile</text>
  <rect x="196" y="153" width="8" height="14" fill="#38BDF8"><animate attributeName="opacity" values="1;1;0;0" keyTimes="0;0.5;0.5;1" dur="1.1s" repeatCount="indefinite"/></rect>

  <g transform="translate(792 122)"><g><line x1="-35.2" y1="24.7" x2="-36" y2="25.2" stroke="#A78BFA" stroke-width="1.6" stroke-linecap="round" opacity="0.12"/><line x1="-34.5" y1="19.5" x2="-38.3" y2="21.6" stroke="#38BDF8" stroke-width="1.6" stroke-linecap="round" opacity="0.3"/><line x1="-34.6" y1="15.3" x2="-40.2" y2="17.8" stroke="#38BDF8" stroke-width="1.6" stroke-linecap="round" opacity="0.39"/><line x1="-34.6" y1="11.5" x2="-41.8" y2="13.8" stroke="#38BDF8" stroke-width="1.6" stroke-linecap="round" opacity="0.46"/><line x1="-34.4" y1="7.8" x2="-42.9" y2="9.7" stroke="#38BDF8" stroke-width="1.6" stroke-linecap="round" opacity="0.53"/><line x1="-33.9" y1="4.3" x2="-43.7" y2="5.5" stroke="#A78BFA" stroke-width="1.6" stroke-linecap="round" opacity="0.58"/><line x1="-33.2" y1="1" x2="-44" y2="1.3" stroke="#38BDF8" stroke-width="1.6" stroke-linecap="round" opacity="0.63"/><line x1="-32.3" y1="-2.2" x2="-43.9" y2="-3" stroke="#38BDF8" stroke-width="1.6" stroke-linecap="round" opacity="0.68"/><line x1="-31.1" y1="-5.2" x2="-43.4" y2="-7.2" stroke="#38BDF8" stroke-width="1.6" stroke-linecap="round" opacity="0.72"/><line x1="-29.8" y1="-8" x2="-42.5" y2="-11.4" stroke="#38BDF8" stroke-width="1.6" stroke-linecap="round" opacity="0.76"/><line x1="-28.3" y1="-10.6" x2="-41.2" y2="-15.4" stroke="#A78BFA" stroke-width="1.6" stroke-linecap="round" opacity="0.8"/><line x1="-26.5" y1="-13" x2="-39.5" y2="-19.4" stroke="#38BDF8" stroke-width="1.6" stroke-linecap="round" opacity="0.83"/><line x1="-24.7" y1="-15.2" x2="-37.4" y2="-23.1" stroke="#38BDF8" stroke-width="1.6" stroke-linecap="round" opacity="0.86"/><line x1="-22.7" y1="-17.2" x2="-35" y2="-26.6" stroke="#38BDF8" stroke-width="1.6" stroke-linecap="round" opacity="0.88"/><line x1="-20.6" y1="-19.1" x2="-32.3" y2="-29.9" stroke="#38BDF8" stroke-width="1.6" stroke-linecap="round" opacity="0.91"/><line x1="-18.4" y1="-20.7" x2="-29.3" y2="-32.9" stroke="#A78BFA" stroke-width="1.6" stroke-linecap="round" opacity="0.93"/><line x1="-16.1" y1="-22.1" x2="-25.9" y2="-35.5" stroke="#38BDF8" stroke-width="1.6" stroke-linecap="round" opacity="0.95"/><line x1="-13.7" y1="-23.3" x2="-22.4" y2="-37.9" stroke="#38BDF8" stroke-width="1.6" stroke-linecap="round" opacity="0.96"/><line x1="-11.3" y1="-24.3" x2="-18.6" y2="-39.9" stroke="#38BDF8" stroke-width="1.6" stroke-linecap="round" opacity="0.97"/><line x1="-8.8" y1="-25.1" x2="-14.6" y2="-41.5" stroke="#38BDF8" stroke-width="1.6" stroke-linecap="round" opacity="0.98"/><line x1="-6.3" y1="-25.7" x2="-10.6" y2="-42.7" stroke="#A78BFA" stroke-width="1.6" stroke-linecap="round" opacity="0.99"/><line x1="-3.8" y1="-26.1" x2="-6.4" y2="-43.5" stroke="#38BDF8" stroke-width="1.6" stroke-linecap="round" opacity="1"/><line x1="-1.3" y1="-26.3" x2="-2.1" y2="-43.9" stroke="#38BDF8" stroke-width="1.6" stroke-linecap="round" opacity="1"/><line x1="1.3" y1="-26.3" x2="2.1" y2="-43.9" stroke="#38BDF8" stroke-width="1.6" stroke-linecap="round" opacity="1"/><line x1="3.8" y1="-26.1" x2="6.4" y2="-43.5" stroke="#38BDF8" stroke-width="1.6" stroke-linecap="round" opacity="1"/><line x1="6.3" y1="-25.7" x2="10.6" y2="-42.7" stroke="#A78BFA" stroke-width="1.6" stroke-linecap="round" opacity="0.99"/><line x1="8.8" y1="-25.1" x2="14.6" y2="-41.5" stroke="#38BDF8" stroke-width="1.6" stroke-linecap="round" opacity="0.98"/><line x1="11.3" y1="-24.3" x2="18.6" y2="-39.9" stroke="#38BDF8" stroke-width="1.6" stroke-linecap="round" opacity="0.97"/><line x1="13.7" y1="-23.3" x2="22.4" y2="-37.9" stroke="#38BDF8" stroke-width="1.6" stroke-linecap="round" opacity="0.96"/><line x1="16.1" y1="-22.1" x2="25.9" y2="-35.5" stroke="#38BDF8" stroke-width="1.6" stroke-linecap="round" opacity="0.95"/><line x1="18.4" y1="-20.7" x2="29.3" y2="-32.9" stroke="#A78BFA" stroke-width="1.6" stroke-linecap="round" opacity="0.93"/><line x1="20.6" y1="-19.1" x2="32.3" y2="-29.9" stroke="#38BDF8" stroke-width="1.6" stroke-linecap="round" opacity="0.91"/><line x1="22.7" y1="-17.2" x2="35" y2="-26.6" stroke="#38BDF8" stroke-width="1.6" stroke-linecap="round" opacity="0.88"/><line x1="24.7" y1="-15.2" x2="37.4" y2="-23.1" stroke="#38BDF8" stroke-width="1.6" stroke-linecap="round" opacity="0.86"/><line x1="26.5" y1="-13" x2="39.5" y2="-19.4" stroke="#38BDF8" stroke-width="1.6" stroke-linecap="round" opacity="0.83"/><line x1="28.3" y1="-10.6" x2="41.2" y2="-15.4" stroke="#A78BFA" stroke-width="1.6" stroke-linecap="round" opacity="0.8"/><line x1="29.8" y1="-8" x2="42.5" y2="-11.4" stroke="#38BDF8" stroke-width="1.6" stroke-linecap="round" opacity="0.76"/><line x1="31.1" y1="-5.2" x2="43.4" y2="-7.2" stroke="#38BDF8" stroke-width="1.6" stroke-linecap="round" opacity="0.72"/><line x1="32.3" y1="-2.2" x2="43.9" y2="-3" stroke="#38BDF8" stroke-width="1.6" stroke-linecap="round" opacity="0.68"/><line x1="33.2" y1="1" x2="44" y2="1.3" stroke="#38BDF8" stroke-width="1.6" stroke-linecap="round" opacity="0.63"/><line x1="33.9" y1="4.3" x2="43.7" y2="5.5" stroke="#A78BFA" stroke-width="1.6" stroke-linecap="round" opacity="0.58"/><line x1="34.4" y1="7.8" x2="42.9" y2="9.7" stroke="#38BDF8" stroke-width="1.6" stroke-linecap="round" opacity="0.53"/><line x1="34.6" y1="11.5" x2="41.8" y2="13.8" stroke="#38BDF8" stroke-width="1.6" stroke-linecap="round" opacity="0.46"/><line x1="34.6" y1="15.3" x2="40.2" y2="17.8" stroke="#38BDF8" stroke-width="1.6" stroke-linecap="round" opacity="0.39"/><line x1="34.5" y1="19.5" x2="38.3" y2="21.6" stroke="#38BDF8" stroke-width="1.6" stroke-linecap="round" opacity="0.3"/><line x1="35.2" y1="24.7" x2="36" y2="25.2" stroke="#A78BFA" stroke-width="1.6" stroke-linecap="round" opacity="0.12"/><animateTransform attributeName="transform" type="rotate" values="0;360" dur="2.6s" repeatCount="indefinite"/></g></g>
  <text x="792" y="182" text-anchor="middle" font-size="9" letter-spacing="2.4" font-family="ui-monospace,SFMono-Regular,Menlo,Consolas,monospace" fill="#4A5A6E">THINKING</text>
</svg>
